<svg width="40" height="43" viewBox="0 0 40 43" fill="none" xmlns="http://www.w3.org/2000/svg">
<path d="M39.9826 31.0519L38.6058 26.3138C38.5141 25.8907 37.9634 25.5523 37.5044 25.7215C37.0455 25.8061 36.6784 26.3138 36.862 26.7368L37.688 29.5289L23.4615 21.9986C23.5533 21.7448 23.5533 21.4064 23.5533 21.1525C23.5533 20.8141 23.4615 20.5603 23.4615 20.2218L37.5962 12.6915L36.7702 15.4837C36.6784 15.9067 36.9537 16.4144 37.4127 16.499C37.8716 16.5836 38.4223 16.3298 38.5141 15.9067L39.8908 11.1685C39.9826 10.7455 39.7073 10.2378 39.2483 10.1532L34.1084 8.88407C33.6495 8.79946 33.0988 9.05329 33.007 9.47634C32.9153 9.89939 33.1906 10.4071 33.6495 10.4917L36.6784 11.2532L22.5437 18.7835C22.0848 18.3604 21.5341 18.022 20.8916 17.9374V2.87675L23.0944 4.90739C23.4615 5.24583 24.0122 5.24583 24.3794 4.90739C24.7465 4.56895 24.7465 4.06129 24.3794 3.72285L20.6162 0.253831C20.2491 -0.0846102 19.6984 -0.0846102 19.3312 0.253831L15.5681 3.72285C15.201 4.06129 15.201 4.56895 15.5681 4.90739C15.9352 5.24583 16.4859 5.24583 16.8531 4.90739L19.0559 2.87675V17.9374C18.4134 18.1066 17.8627 18.3604 17.4038 18.7835L3.26907 11.2532L6.29794 10.4917C6.75686 10.4071 7.03221 9.89939 6.94042 9.47634C6.84864 9.05329 6.29794 8.79946 5.83902 8.88407L0.699122 10.1532C0.240202 10.2378 -0.0351491 10.7455 0.0566348 11.1685L1.43339 15.9067C1.52518 16.3298 2.07588 16.5836 2.5348 16.499C2.99372 16.4144 3.36085 15.9067 3.17728 15.4837L2.35123 12.6915L16.4859 20.3064C16.3942 20.5603 16.3942 20.8987 16.3942 21.1525C16.3942 21.491 16.3942 21.7448 16.4859 21.9986L2.35123 29.5289L3.17728 26.7368C3.26907 26.3138 2.99372 25.8061 2.5348 25.7215C2.07588 25.6369 1.52518 25.8907 1.43339 26.3138L0.0566348 31.0519C-0.126933 31.5596 0.148418 31.9826 0.699122 32.1519L5.83902 33.421C6.29794 33.5056 6.84864 33.2518 6.94042 32.8287C7.03221 32.4057 6.75686 31.898 6.29794 31.8134L3.26907 31.0519L17.4038 23.5216C17.8627 23.9447 18.4134 24.2831 19.0559 24.3677V39.4283L16.8531 37.3977C16.4859 37.0593 15.9352 37.0593 15.5681 37.3977C15.201 37.7361 15.201 38.2438 15.5681 38.5822L19.3312 42.0513C19.6984 42.3897 20.2491 42.3897 20.6162 42.0513L24.3794 38.5822C24.7465 38.2438 24.7465 37.7361 24.3794 37.3977C24.0122 37.0593 23.4615 37.0593 23.0944 37.3977L20.8916 39.4283V24.3677C21.5341 24.1985 22.0848 23.9447 22.5437 23.5216L36.6784 31.0519L33.6495 31.8134C33.1906 31.898 32.9153 32.4057 33.007 32.8287C33.0988 33.2518 33.6495 33.5056 34.1084 33.421L39.2483 32.1519C39.799 31.9826 40.0744 31.5596 39.9826 31.0519ZM19.9737 22.8447C19.0559 22.8447 18.1381 22.1679 18.1381 21.1525C18.1381 20.2218 18.9641 19.4603 19.9737 19.4603C20.9834 19.4603 21.7176 20.2218 21.7176 21.1525C21.8094 22.0833 20.8916 22.8447 19.9737 22.8447Z" fill="#0872BF"/>
</svg>
